<?xml version="1.0" encoding="utf-8"?>
<!-- Generator: Adobe Illustrator 19.2.0, SVG Export Plug-In . SVG Version: 6.00 Build 0)  -->
<!DOCTYPE svg PUBLIC "-//W3C//DTD SVG 1.1//EN" "http://www.w3.org/Graphics/SVG/1.1/DTD/svg11.dtd">
<svg version="1.1" xmlns="http://www.w3.org/2000/svg" xmlns:xlink="http://www.w3.org/1999/xlink" x="0px" y="0px" width="45px"
	 height="45px" viewBox="0 0 45 45" style="enable-background:new 0 0 45 45;" xml:space="preserve">
<style type="text/css">
	.st0{display:none;}
	.st1{fill:#0A77A3;}
	.st2{fill:#006799;}
	.st3{display:inline;}
	.st4{fill:#FFFFFF;}
	.st5{fill:#989898;}
	.st6{fill:#AFD3F0;}
	.st7{fill:#D6EAF9;}
	.st8{fill:#333333;}
	.st9{fill:#FAB811;}
	.st10{fill:#FFCB03;}
	.st11{display:none;fill:#0A77A3;}
	.st12{display:inline;fill:#006799;}
	.st13{fill:#E36714;}
	.st14{fill:#EE7D3F;}
	.st15{fill:none;}
	.st16{fill:#5E5E5D;}
	.st17{fill:#ED771E;}
	.st18{fill:#EB622B;}
	.st19{fill:#006042;}
	.st20{fill:#207249;}
	.st21{fill:#589342;}
	.st22{fill:#CCCBCB;}
</style>
<g id="pen_and_board" class="st0">
	<circle class="st1" cx="718.6" cy="557.6" r="68"/>
	<path class="st2" d="M786.4,562.3l-34.2-34.5l-64.2,4.9v14.1v5.6l-5.8,33.3l5.7,5.9l0,0v0h0l33.1,34
		C755.9,624.2,784,596.8,786.4,562.3z"/>
	<g class="st3">
		<g>
			<path class="st4" d="M2.6,38.5c-0.9,0-1.7-0.7-1.7-1.7V7.3c0-0.9,0.7-1.7,1.7-1.7h35.6c0.9,0,1.7,0.7,1.7,1.7v29.5
				c0,0.9-0.7,1.7-1.7,1.7H2.6z"/>
			<path class="st5" d="M38.2,5.9c0.8,0,1.4,0.6,1.4,1.4v29.5c0,0.8-0.6,1.4-1.4,1.4H2.6c-0.8,0-1.4-0.6-1.4-1.4V7.3
				c0-0.8,0.6-1.4,1.4-1.4H38.2 M38.2,5.4H2.6c-1,0-1.9,0.8-1.9,1.9v29.5c0,1,0.8,1.9,1.9,1.9h35.6c1,0,1.9-0.8,1.9-1.9V7.3
				C40.1,6.3,39.3,5.4,38.2,5.4L38.2,5.4z"/>
			<path class="st5" d="M38.2,5.4H2.6c-1,0-1.9,0.8-1.9,1.9v3.5h39.3V7.3C40.1,6.3,39.3,5.4,38.2,5.4z"/>
			<circle class="st4" cx="3.5" cy="8.2" r="1"/>
			<circle class="st4" cx="6.4" cy="8.2" r="1"/>
			<circle class="st4" cx="9.3" cy="8.2" r="1"/>
			<rect x="13.3" y="7.3" class="st4" width="24.1" height="1.9"/>
			<rect x="2.9" y="13.7" class="st6" width="8.5" height="0.8"/>
			<rect x="2.9" y="34.3" class="st6" width="34.4" height="0.8"/>
			<rect x="31.8" y="13.7" class="st6" width="5.4" height="0.8"/>
			<rect x="24.9" y="13.7" class="st6" width="5.4" height="0.8"/>
			<rect x="18.1" y="13.7" class="st6" width="5.4" height="0.8"/>
			<rect x="22.8" y="17.5" class="st6" width="9.2" height="0.8"/>
			<rect x="22.8" y="20.2" class="st6" width="14.4" height="0.8"/>
			<rect x="22.8" y="22.8" class="st6" width="14.4" height="0.8"/>
			<rect x="22.8" y="25.5" class="st6" width="14.4" height="0.8"/>
			<path class="st6" d="M36.2,28.7H23.8c-0.5,0-1,0.5-1,1v0.6c0,0.5,0.5,1,1,1h12.4c0.5,0,1-0.5,1-1v-0.6
				C37.2,29.1,36.7,28.7,36.2,28.7z"/>
			<path class="st7" d="M18.9,27.6h-15c-0.5,0-1-0.4-1-1v-9.1c0-0.5,0.5-1,1-1h15c0.5,0,1,0.5,1,1v9.1
				C19.9,27.1,19.4,27.6,18.9,27.6z"/>
			<path class="st6" d="M11,31.6H8.8c-0.6,0-1-0.5-1-1v-1.1c0-0.6,0.5-1,1-1H11c0.6,0,1,0.4,1,1v1.1C12,31.1,11.5,31.6,11,31.6z"/>
			<path class="st6" d="M6,31.6H3.9c-0.5,0-1-0.5-1-1v-1.1c0-0.6,0.5-1,1-1H6c0.6,0,1,0.4,1,1v1.1C7,31.1,6.6,31.6,6,31.6z"/>
			<path class="st6" d="M15.9,31.6h-2.2c-0.5,0-1-0.5-1-1v-1.1c0-0.6,0.5-1,1-1h2.2c0.6,0,1,0.4,1,1v1.1
				C16.9,31.1,16.5,31.6,15.9,31.6z"/>
			<path class="st6" d="M19.8,31.6h-1.5c-0.3,0-0.6-0.3-0.6-0.6v-2c0-0.3,0.3-0.6,0.6-0.6h1.5V31.6z"/>
			<path class="st6" d="M19.3,27.6H7.7L14,16.5h5.3c0.3,0,0.6,0.3,0.6,0.6v10C19.9,27.3,19.6,27.6,19.3,27.6z"/>
		</g>
		<g>
			<path class="st8" d="M16.5,34.8c0.9,1.6,0,4.4-2.1,6.8l0.3,0.3l0,0l4.9-4.9c-0.1-0.3-0.1-0.6,0.1-0.8c0.3-0.3,0.7-0.3,0.9,0
				c0.3,0.3,0.3,0.7,0,0.9c-0.2,0.2-0.5,0.2-0.8,0.1L15,42.1l0,0l0.3,0.3c2.4-2.1,5.2-2.9,6.8-2.1c0.6-1,1.2-2,2.1-2.9
				c0.8-1,1.6-1.8,2.5-2.6c-0.8-0.6-1.6-1.3-2.5-2.1c-0.8-0.8-1.5-1.6-2.1-2.5c-0.7,0.8-1.6,1.7-2.6,2.5
				C18.5,33.5,17.5,34.2,16.5,34.8z"/>
			<path class="st9" d="M38.7,22.1c2.8-2.8-1.1-6.7-3.9-3.9c-4.8,4.6-7.9,7.5-12.7,12.1c1.5,1.5,3,3,4.5,4.5
				C31.2,30,34.1,26.9,38.7,22.1z"/>
			
				<rect x="23.5" y="29.6" transform="matrix(0.7071 -0.7071 0.7071 0.7071 -16.219 26.5823)" class="st10" width="1" height="6.6"/>
			<g>
				<path class="st10" d="M33.7,28.7L44,18.5c1.1-1.1,1.1-2.9-0.1-4l-1.4-1.4c-1.1-1.1-2.9-1.2-4-0.1L28.2,23.3L33.7,28.7z"/>
				<path class="st9" d="M44,19l-5.5-5.5c-1-1-2.5-1.1-3.4-0.2l-5.9,5.9l0,0l-1,1c0.8,0.5,1.9,0.4,2.4-0.1c0.2-0.2,0.3-0.6,0.2-0.9
					l5.1-5.1c0.5-0.5,1.3-0.4,1.8,0.1l5.5,5.5c0.2,0.2,0.6,0.3,0.8,0.1C44.3,19.6,44.2,19.2,44,19z"/>
			</g>
		</g>
	</g>
</g>
<g id="looking_glass">
	<g>
		<circle class="st11" cx="21.1" cy="21.5" r="35"/>
		<g class="st0">
			<path class="st12" d="M25.1,6.4c-0.2-0.2-0.3-0.3-0.5-0.5c-2.5-2.5-5.9-3.9-9.5-4c-3.6,0-7,1.4-9.5,3.9c-2.5,2.5-3.9,5.9-3.9,9.5
				c0,3.9,1.7,7.4,4.3,9.9c0,0,27.7,29,28.2,28.8c9.1-3.7,16.3-11.1,19.7-20.3C54,33.5,25.1,6.4,25.1,6.4z"/>
		</g>
		<g>
			<g>
				<g>
					<path class="st13" d="M41.4,41.7C41.4,41.7,41.4,41.7,41.4,41.7c-1.3,1.3-3.5,1.3-4.9,0L26,31.2c-1.3-1.3-1.3-3.5,0-4.9
						c0,0,0,0,0,0c1.3-1.3,3.5-1.3,4.9,0l10.5,10.5C42.7,38.2,42.7,40.4,41.4,41.7L41.4,41.7z"/>
					<path class="st14" d="M39.9,41.7c-0.5,0.5-1.4,0.5-1.9,0L27.5,31.1c-0.5-0.5-0.5-1.4,0-1.9c0.5-0.5,1.4-0.5,1.9,0l10.5,10.5
						C40.4,40.3,40.4,41.1,39.9,41.7L39.9,41.7z"/>
					<path class="st8" d="M5.6,5.9C5.6,5.9,5.6,5.9,5.6,5.9c2.5-2.5,5.9-3.9,9.5-3.9c7.4,0,13.4,6,13.4,13.4c0,3.6-1.4,6.9-3.9,9.5
						c-2.5,2.5-5.9,3.9-9.5,3.9c-3.6,0-6.9-1.4-9.5-4c-2.5-2.5-3.9-5.9-3.9-9.5C1.7,11.7,3.1,8.4,5.6,5.9L5.6,5.9z"/>
					<g>
						<path class="st15" d="M23.4,23.7"/>
					</g>
					<path class="st7" d="M8,8.3c-1.9,1.9-2.9,4.4-2.9,7c0,5.5,4.5,10,10,10c2.7,0,5.2-1,7.1-2.9l0,0c1.9-1.9,2.9-4.4,2.9-7
						c0-2.7-1-5.2-2.9-7.1c-1.9-1.9-4.4-2.9-7.1-2.9C12.4,5.3,9.9,6.4,8,8.3L8,8.3z"/>
					<path class="st4" d="M22.2,8.3c-1.9-1.9-4.4-2.9-7.1-2.9c-0.8,0-1.5,0.1-2.2,0.2c-1.1,0.5-2.1,1.2-3,2.1C8,9.5,7,12,7,14.7
						c0,5.5,4.5,10,10,10c0.8,0,1.5-0.1,2.2-0.2c1.1-0.5,2.1-1.2,3-2.1l0,0c1.9-1.9,2.9-4.4,2.9-7C25.1,12.7,24,10.2,22.2,8.3z"/>
					<g>
						<path class="st8" d="M27.4,27.7c-0.7,0.7-1.8,0.7-2.4,0l-2.1-2.2c-0.7-0.7-0.7-1.8,0-2.4c0,0,0,0,0,0c0.7-0.7,1.8-0.7,2.4,0
							l2.1,2.2C28.1,26,28,27.1,27.4,27.7C27.4,27.7,27.4,27.7,27.4,27.7z"/>
					</g>
					<g>
						<path class="st16" d="M15.1,2.7c7,0,12.7,5.7,12.6,12.7c0,3.4-1.3,6.5-3.7,8.9c-2.4,2.4-5.6,3.7-8.9,3.7c0,0,0,0,0,0l0-1.7
							c0,0,0,0,0,0c2.9,0,5.7-1.1,7.8-3.2c2.1-2.1,3.2-4.8,3.2-7.7c0-6.1-4.9-11-11-11L15.1,2.7L15.1,2.7z"/>
					</g>
				</g>
			</g>
			<path class="st6" d="M9,20.7C9,20.7,9,20.7,9,20.7l-2,0c-0.1,0-0.2,0-0.3,0.1C6.8,20.9,6.9,21,7,21.1c0.1,0.1,0.1,0.2,0.2,0.3
				c0.1,0.2,0.3,0.4,0.5,0.6c0.1,0.1,0.1,0.2,0.2,0.2c0.1,0.2,0.3,0.3,0.5,0.5c0.1,0.1,0.2,0.2,0.3,0.3c0.1,0.1,0.2,0.2,0.4,0.3
				c0.1,0.1,0.2,0.1,0.3,0.2c0.2,0.1,0.4,0.3,0.6,0.4c0.1,0.1,0.2,0.1,0.3,0.2c0.2,0.1,0.4,0.2,0.6,0.3c0.1,0.1,0.2,0.1,0.3,0.2
				c0.1,0.1,0.3,0.1,0.4,0.2c0.1,0.1,0.3,0.1,0.4,0.1c0.2,0.1,0.4,0.1,0.6,0.2c0.1,0,0.2,0.1,0.3,0.1c0.2,0.1,0.5,0.1,0.7,0.1
				c0.1,0,0.2,0,0.3,0.1c0.2,0,0.3,0,0.5,0.1c-0.1-0.3-0.2-0.7-0.2-1C12,23.6,10.3,22.3,9,20.7z"/>
		</g>
	</g>
</g>
<g id="envelope" class="st0">
	<g class="st3">
		<polygon class="st17" points="22.5,1.8 31.8,9.8 41.1,17.9 22.5,17.9 3.9,17.9 13.2,9.8 		"/>
		<path class="st18" d="M37.1,14.4l4,3.6v23.5c0,1.3-1.1,2.4-2.4,2.4H6.3c-1.3,0-2.4-1.1-2.4-2.4V17.9l4-3.2"/>
		<path class="st17" d="M37.1,14.4l4,3.6v23.5c0,1.3-1.1,2.4-2.4,2.4H6.3c-1.3,0-2.4-1.1-2.4-2.4V17.9l4-3.2"/>
		<polyline class="st4" points="8.2,32.7 8.2,6.8 36.9,6.8 36.9,32.7 		"/>
		<path class="st10" d="M18.1,29.8l-14,12.5c0.3,0.9,1.2,1.6,2.3,1.6h32.3c1,0,1.9-0.6,2.3-1.6l-14-12.5H18.1z"/>
		<g>
			<path class="st9" d="M27,29.9l13.9,12.4c0,0.1-0.1,0.2-0.2,0.3l0,0c0.2-0.4,0.3-0.8,0.3-1.2V17.9L27,29.9z"/>
			<path class="st9" d="M4.1,42.2L18,29.9L3.9,17.9v23.5c0,0.4,0.1,0.8,0.3,1.2l0,0C4.2,42.5,4.1,42.4,4.1,42.2z"/>
		</g>
		<g>
			<path class="st2" d="M19.7,11.7c0.4-0.1,1.3-0.4,2.6-0.4c1.5,0,2.7,0.4,3.5,1.1c0.5,0.6,0.8,1.3,0.8,2.1c0,1.5-0.7,2.1-2.2,3.7
				c-0.1,0.1-1,1-1,1.1c-0.1,0.2-0.1,0.3-0.1,0.6v2h-1.5v-2c0-0.7,0-0.8,1-1.9c1.4-1.5,2.1-2.2,2.1-3.3c0-1.9-2-1.9-2.5-1.9
				c-0.3,0-1.2,0-2.5,0.5V11.7z M21.5,23h1.9v1.9h-1.9V23z"/>
		</g>
	</g>
</g>
<g id="money" class="st0">
	<g class="st3">
		<path class="st19" d="M16.9,2.8L3.4,33.5c-0.4,1,0,2.1,1,2.6l7.8,3.6l7.8,3.6c1,0.5,2.1,0,2.6-1L36,11.6c0.4-1,0-2.2-1-2.6
			L19.5,1.9C18.5,1.4,17.3,1.8,16.9,2.8z"/>
		<path class="st20" d="M21.2,2.6L4.4,31.6c-0.5,0.9-0.2,2.1,0.7,2.7l7.3,4.5l7.3,4.5c0.9,0.6,2.1,0.3,2.7-0.6l16.8-28.9
			c0.5-0.9,0.2-2.1-0.7-2.7L23.9,2C22.9,1.4,21.7,1.7,21.2,2.6z"/>
		<g>
			<path class="st21" d="M25.2,2.9l-19.7,27c-0.6,0.9-0.4,2.1,0.4,2.8l6.8,5.2l6.8,5.2c0.9,0.7,2.1,0.5,2.7-0.4l19.7-27
				c0.6-0.9,0.4-2.1-0.4-2.8L27.9,2.6C27,1.9,25.8,2.1,25.2,2.9z"/>
			<path class="st20" d="M37.2,11.3l-6.5-4.9c-1.8,1.8-4.7,2.1-7,0.8l-14.6,20c1.9,2,2.4,4.8,1.2,7.1l6.5,4.9c1.8-1.8,4.7-2.1,7-0.8
				l14.6-20C36.5,16.5,36,13.6,37.2,11.3z"/>
			<path class="st21" d="M23.6,37.6c-2.4-1-5-0.7-6.9,0.7l-5.4-4.1c0.8-2.3,0.3-4.9-1.3-7L23.9,8c2.4,1,5,0.7,6.9-0.7l5.4,4.1
				c-0.8,2.3-0.3,4.9,1.3,7L23.6,37.6z"/>
			<path class="st20" d="M23.3,36.8c-2.3-0.8-4.7-0.5-6.7,0.7L12,33.9c0.6-2.2,0.2-4.7-1.2-6.7L24.1,8.8c2.3,0.8,4.7,0.5,6.7-0.7
				l4.7,3.6c-0.6,2.2-0.2,4.7,1.2,6.7L23.3,36.8z"/>
			<path class="st21" d="M34.3,13.9l-2.6,3.6c-0.1,0.2-0.1,0.4,0,0.6c0.1,0.1,0.4,0,0.5-0.2l2.6-3.6c0.1-0.2,0.1-0.4,0-0.6
				C34.7,13.7,34.5,13.7,34.3,13.9z"/>
			<path class="st21" d="M21,32.2l-2.6,3.6c-0.1,0.2-0.1,0.4,0,0.6c0.1,0.1,0.4,0,0.5-0.2l2.6-3.6c0.1-0.2,0.1-0.4,0-0.6
				C21.4,31.9,21.1,32,21,32.2z"/>
			<path class="st21" d="M20.5,12.7l-7.1,9.8c-0.2,0.3,0,0.8,0.4,1.1c0.4,0.3,1,0.4,1.2,0.1l7.1-9.8c0.2-0.3,0-0.8-0.4-1.1
				C21.2,12.5,20.7,12.5,20.5,12.7z"/>
			<path class="st21" d="M32.6,22l-7.1,9.8c-0.2,0.3,0,0.8,0.4,1.1c0.4,0.3,1,0.4,1.2,0.1l7.1-9.8c0.2-0.3,0-0.8-0.4-1.1
				C33.3,21.8,32.8,21.7,32.6,22z"/>
			<path class="st21" d="M29.5,27.3c-2.2,3-6.5,3.4-9.7,1c-3.2-2.4-4-6.8-1.9-9.8c2.2-3,6.5-3.4,9.7-1
				C30.8,19.9,31.7,24.3,29.5,27.3z"/>
			<path class="st20" d="M29,26.9c-1.9,2.7-5.9,3-8.8,0.8c-2.9-2.2-3.7-6.2-1.7-8.9c1.9-2.7,5.9-3,8.8-0.8
				C30.2,20.2,30.9,24.2,29,26.9z"/>
			<path class="st21" d="M19,19.2c-1.7,2.4-1,5.9,1.6,7.9c2.6,2,6.1,1.7,7.9-0.7c1.7-2.4,1-5.9-1.6-7.9C24.3,16.5,20.7,16.9,19,19.2
				z"/>
			<path class="st20" d="M26.2,22.4c-0.1,0.1-0.2-0.1-0.3-0.1c-0.1,0-0.5,0.1-0.7-0.1c-0.2-0.2-0.1-0.2-0.2-0.3
				c-0.1-0.1,0-0.2-0.1-0.5c0-0.2-0.2-0.4-0.3-0.6c0-0.2-0.1-0.3-0.1-0.4c0.1-0.2,0-0.3,0.1-0.4c0.1-0.1,0-0.2-0.1-0.3
				c-0.1-0.2-0.4,0-0.5-0.1c-0.1-0.1-0.4,0-0.5,0c-0.1,0-0.3-0.1-0.4-0.2c-0.1,0-0.5,0-0.6-0.1c-0.1,0-0.6,0-0.7,0
				c-0.2,0-0.4,0.1-0.6,0.2c-0.3,0.1-0.8,0.6-1,0.8C20.1,20.5,20,21,20,21s-0.2,0.3-0.2,0.7c0,0.1-0.1,0.3-0.1,0.5
				c-0.1,0.2-0.1,0.6,0,0.8c0.1,0.1,0.3,0.2,0.3,0.2s0,0.2,0,0.3c0.1,0.1,0.3,0.1,0.3,0.1s0,0.6,0.1,0.8c0.1,0.1,0.2,0.1,0.3,0
				c0.1-0.1,0.2-0.2,0.3-0.2c0.1,0,0.7-0.2,0.8-0.2c0.1,0,0.4,0,0.6,0.3c0.2,0.2,0.4,0.7,0.4,1c0.1,0.3,0,1.6,0.2,1.7
				c0.8,0.3,2.2-0.1,2.7-0.4c0.8-0.3,1.6-1.1,2-2.3c0.3-1,0.1-2.5-0.2-2.8C27.2,21.6,26.4,22.4,26.2,22.4z"/>
			<path class="st21" d="M27.3,11.3c-1.1,1.5-0.6,3.8,1.2,5.1c1.7,1.3,4,1.2,5.1-0.3c1.1-1.5,0.5-3.8-1.2-5.1
				C30.6,9.7,28.3,9.8,27.3,11.3z"/>
			<path class="st21" d="M13.9,29.6c-1.1,1.5-0.6,3.8,1.2,5.1c1.7,1.3,4,1.2,5.1-0.3c1.1-1.5,0.5-3.8-1.2-5.1
				C17.3,28,15,28.1,13.9,29.6z"/>
		</g>
		<ellipse class="st9" cx="33" cy="34" rx="6.6" ry="6.7"/>
		<ellipse class="st10" cx="33" cy="34" rx="6.1" ry="6.2"/>
		<g>
			<path class="st9" d="M33,39.3c-2.8,0-5.1-2.4-5.1-5.2c0-2.9,2.3-5.2,5.1-5.2c2.8,0,5.1,2.4,5.1,5.2C38.2,36.9,35.9,39.3,33,39.3
				L33,39.3z"/>
			<path class="st10" d="M33,38.6c-2.4,0-4.4-2-4.4-4.5c0-2.5,2-4.5,4.4-4.5c2.4,0,4.4,2,4.4,4.5C37.5,36.5,35.5,38.6,33,38.6
				L33,38.6z"/>
		</g>
		<ellipse class="st5" cx="26.3" cy="38" rx="5.2" ry="5.4"/>
		<ellipse class="st22" cx="26.3" cy="38" rx="4.8" ry="4.9"/>
		<path class="st5" d="M26.3,42.1c-2.1-0.1-4-1.8-4-4.1c0-2.2,1.8-4.1,4-4.1c2.2,0,4,1.8,4,4.1C30.3,40.3,28.5,42.1,26.3,42.1
			L26.3,42.1z"/>
		<path class="st22" d="M26.3,41.6c-1.9,0-3.5-1.6-3.5-3.5c0-2,1.6-3.5,3.5-3.5c1.9,0,3.5,1.6,3.5,3.5C29.7,40,28.2,41.6,26.3,41.6
			L26.3,41.6z"/>
	</g>
</g>
</svg>
